<svg xmlns="http://www.w3.org/2000/svg" xmlns:xlink="http://www.w3.org/1999/xlink" version="1.1" class="marks" width="929" height="650" viewBox="0 0 929 650"><rect width="929" height="650" fill="#fbfaf7"/><g fill="none" stroke-miterlimit="10" transform="translate(161,61)"><g class="mark-group role-frame root" role="graphics-object" aria-roledescription="group mark container"><g transform="translate(0,0)"><path class="background" aria-hidden="true" d="M0,0h760v0h-760Z"/><g><g class="mark-group role-scope concat_0_group" role="graphics-object" aria-roledescription="group mark container"><g transform="translate(0,0)"><path class="background" aria-hidden="true" d="M0,0h760v190h-760Z"/><g><g class="mark-group role-axis" aria-hidden="true"><g transform="translate(0.5,190.5)"><path class="background" aria-hidden="true" d="M0,0h0v0h0Z" pointer-events="none"/><g><g class="mark-rule role-axis-grid" pointer-events="none"><line transform="translate(0,-190)" x2="0" y2="190" stroke="#ddd" stroke-width="1" opacity="1"/><line transform="translate(69,-190)" x2="0" y2="190" stroke="#ddd" stroke-width="1" opacity="1"/><line transform="translate(138,-190)" x2="0" y2="190" stroke="#ddd" stroke-width="1" opacity="1"/><line transform="translate(207,-190)" x2="0" y2="190" stroke="#ddd" stroke-width="1" opacity="1"/><line transform="translate(276,-190)" x2="0" y2="190" stroke="#ddd" stroke-width="1" opacity="1"/><line transform="translate(345,-190)" x2="0" y2="190" stroke="#ddd" stroke-width="1" opacity="1"/><line transform="translate(415,-190)" x2="0" y2="190" stroke="#ddd" stroke-width="1" opacity="1"/><line transform="translate(484,-190)" x2="0" y2="190" stroke="#ddd" stroke-width="1" opacity="1"/><line transform="translate(553,-190)" x2="0" y2="190" stroke="#ddd" stroke-width="1" opacity="1"/><line transform="translate(622,-190)" x2="0" y2="190" stroke="#ddd" stroke-width="1" opacity="1"/><line transform="translate(691,-190)" x2="0" y2="190" stroke="#ddd" stroke-width="1" opacity="1"/><line transform="translate(760,-190)" x2="0" y2="190" stroke="#ddd" stroke-width="1" opacity="1"/></g></g><path class="foreground" aria-hidden="true" d="" pointer-events="none" display="none"/></g></g><g class="mark-group role-axis" aria-hidden="true"><g transform="translate(0.5,0.5)"><path class="background" aria-hidden="true" d="M0,0h0v0h0Z" pointer-events="none"/><g><g class="mark-rule role-axis-grid" pointer-events="none"><line transform="translate(0,190)" x2="760" y2="0" stroke="#ddd" stroke-width="1" opacity="1"/><line transform="translate(0,143)" x2="760" y2="0" stroke="#ddd" stroke-width="1" opacity="1"/><line transform="translate(0,95)" x2="760" y2="0" stroke="#ddd" stroke-width="1" opacity="1"/><line transform="translate(0,48)" x2="760" y2="0" stroke="#ddd" stroke-width="1" opacity="1"/><line transform="translate(0,0)" x2="760" y2="0" stroke="#ddd" stroke-width="1" opacity="1"/></g></g><path class="foreground" aria-hidden="true" d="" pointer-events="none" display="none"/></g></g><g class="mark-group role-axis" role="graphics-symbol" aria-roledescription="axis" aria-label="X-axis titled 'Week since presentation start' for a linear scale with values from 0 to 11"><g transform="translate(0.5,190.5)"><path class="background" aria-hidden="true" d="M0,0h0v0h0Z" pointer-events="none"/><g><g class="mark-rule role-axis-tick" pointer-events="none"><line transform="translate(0,0)" x2="0" y2="5" stroke="#888" stroke-width="1" opacity="1"/><line transform="translate(69,0)" x2="0" y2="5" stroke="#888" stroke-width="1" opacity="1"/><line transform="translate(138,0)" x2="0" y2="5" stroke="#888" stroke-width="1" opacity="1"/><line transform="translate(207,0)" x2="0" y2="5" stroke="#888" stroke-width="1" opacity="1"/><line transform="translate(276,0)" x2="0" y2="5" stroke="#888" stroke-width="1" opacity="1"/><line transform="translate(345,0)" x2="0" y2="5" stroke="#888" stroke-width="1" opacity="1"/><line transform="translate(415,0)" x2="0" y2="5" stroke="#888" stroke-width="1" opacity="1"/><line transform="translate(484,0)" x2="0" y2="5" stroke="#888" stroke-width="1" opacity="1"/><line transform="translate(553,0)" x2="0" y2="5" stroke="#888" stroke-width="1" opacity="1"/><line transform="translate(622,0)" x2="0" y2="5" stroke="#888" stroke-width="1" opacity="1"/><line transform="translate(691,0)" x2="0" y2="5" stroke="#888" stroke-width="1" opacity="1"/><line transform="translate(760,0)" x2="0" y2="5" stroke="#888" stroke-width="1" opacity="1"/></g><g class="mark-text role-axis-label" pointer-events="none"><text text-anchor="start" transform="translate(0,16)" font-family="sans-serif" font-size="11px" fill="#000" opacity="1">0</text><text text-anchor="middle" transform="translate(69.0909090909091,16)" font-family="sans-serif" font-size="11px" fill="#000" opacity="1">1</text><text text-anchor="middle" transform="translate(138.1818181818182,16)" font-family="sans-serif" font-size="11px" fill="#000" opacity="1">2</text><text text-anchor="middle" transform="translate(207.27272727272725,16)" font-family="sans-serif" font-size="11px" fill="#000" opacity="1">3</text><text text-anchor="middle" transform="translate(276.3636363636364,16)" font-family="sans-serif" font-size="11px" fill="#000" opacity="1">4</text><text text-anchor="middle" transform="translate(345.45454545454544,16)" font-family="sans-serif" font-size="11px" fill="#000" opacity="1">5</text><text text-anchor="middle" transform="translate(414.5454545454545,16)" font-family="sans-serif" font-size="11px" fill="#000" opacity="1">6</text><text text-anchor="middle" transform="translate(483.6363636363636,16)" font-family="sans-serif" font-size="11px" fill="#000" opacity="1">7</text><text text-anchor="middle" transform="translate(552.7272727272727,16)" font-family="sans-serif" font-size="11px" fill="#000" opacity="1">8</text><text text-anchor="middle" transform="translate(621.8181818181819,16)" font-family="sans-serif" font-size="11px" fill="#000" opacity="1">9</text><text text-anchor="middle" transform="translate(690.9090909090909,16)" font-family="sans-serif" font-size="11px" fill="#000" opacity="1">10</text><text text-anchor="end" transform="translate(760,16)" font-family="sans-serif" font-size="11px" fill="#000" opacity="1">11</text></g><g class="mark-rule role-axis-domain" pointer-events="none"><line transform="translate(0,0)" x2="760" y2="0" stroke="#888" stroke-width="1" opacity="1"/></g><g class="mark-text role-axis-title" pointer-events="none"><text text-anchor="middle" transform="translate(380,31)" font-family="sans-serif" font-size="12px" font-weight="bold" fill="#000" opacity="1">Week since presentation start</text></g></g><path class="foreground" aria-hidden="true" d="" pointer-events="none" display="none"/></g></g><g class="mark-group role-axis" role="graphics-symbol" aria-roledescription="axis" aria-label="Y-axis titled 'recorded clicks / eligible day' for a linear scale with values from 0 to 20"><g transform="translate(0.5,0.5)"><path class="background" aria-hidden="true" d="M0,0h0v0h0Z" pointer-events="none"/><g><g class="mark-rule role-axis-tick" pointer-events="none"><line transform="translate(0,190)" x2="-5" y2="0" stroke="#888" stroke-width="1" opacity="1"/><line transform="translate(0,143)" x2="-5" y2="0" stroke="#888" stroke-width="1" opacity="1"/><line transform="translate(0,95)" x2="-5" y2="0" stroke="#888" stroke-width="1" opacity="1"/><line transform="translate(0,48)" x2="-5" y2="0" stroke="#888" stroke-width="1" opacity="1"/><line transform="translate(0,0)" x2="-5" y2="0" stroke="#888" stroke-width="1" opacity="1"/></g><g class="mark-text role-axis-label" pointer-events="none"><text text-anchor="end" transform="translate(-7,193)" font-family="sans-serif" font-size="11px" fill="#000" opacity="1">0</text><text text-anchor="end" transform="translate(-7,145.5)" font-family="sans-serif" font-size="11px" fill="#000" opacity="1">5</text><text text-anchor="end" transform="translate(-7,98)" font-family="sans-serif" font-size="11px" fill="#000" opacity="1">10</text><text text-anchor="end" transform="translate(-7,50.5)" font-family="sans-serif" font-size="11px" fill="#000" opacity="1">15</text><text text-anchor="end" transform="translate(-7,3)" font-family="sans-serif" font-size="11px" fill="#000" opacity="1">20</text></g><g class="mark-rule role-axis-domain" pointer-events="none"><line transform="translate(0,190)" x2="0" y2="-190" stroke="#888" stroke-width="1" opacity="1"/></g><g class="mark-text role-axis-title" pointer-events="none"><text text-anchor="middle" transform="translate(-23.2353515625,95) rotate(-90) translate(0,-3)" font-family="sans-serif" font-size="12px" font-weight="bold" fill="#000" opacity="1">recorded clicks / eligible day</text></g></g><path class="foreground" aria-hidden="true" d="" pointer-events="none" display="none"/></g></g><g class="mark-area role-mark concat_0_layer_0_marks" role="graphics-object" aria-roledescription="area mark container"><path aria-label="Week since presentation start: 0; recorded clicks / eligible day: 11.3551719028; peer_ci_high: 14.396902786" role="graphics-symbol" aria-roledescription="area mark" d="M0,82.126L69.091,67.935L138.182,47.363L207.273,121.396L276.364,130.384L345.455,130.126L414.545,133.878L483.636,121.874L552.727,148.652L621.818,156.677L690.909,156.967L760,170.626L760,158.917L690.909,138.454L621.818,140.933L552.727,132.142L483.636,104.139L414.545,114.897L345.455,109.002L276.364,109.673L207.273,97.636L138.182,13.441L69.091,34.315L0,53.229Z" fill="#286f83" opacity="0.16"/></g><g class="mark-line role-mark concat_0_layer_1_marks" role="graphics-object" aria-roledescription="line mark container"><path aria-label="week: 0; peer_mean: 12.8168346177; peer_people: 241; peer_observations: 241" role="graphics-symbol" aria-roledescription="line mark" d="M0,68.24L69.091,50.544L138.182,31.044L207.273,110.046L276.364,120.665L345.455,119.574L414.545,124.478L483.636,113.724L552.727,140.417L621.818,148.724L690.909,148.344L760,165.241" stroke="#286f83" stroke-width="2"/></g><g class="mark-line role-mark concat_0_layer_2_layer_0_marks" role="graphics-object" aria-roledescription="line mark container"><path aria-label="week: 0; focal_value: 5.85714285714" role="graphics-symbol" aria-roledescription="line mark" d="M0,134.357L69.091,179.143L138.182,190L207.273,114L276.364,143.857L345.455,188.643L414.545,190L483.636,190L552.727,190L621.818,190L690.909,190L760,190" stroke="#b64c35" stroke-width="2.5"/></g><g class="mark-symbol role-mark concat_0_layer_2_layer_1_marks" role="graphics-object" aria-roledescription="symbol mark container"><path aria-label="week: 0; focal_value: 5.85714285714" role="graphics-symbol" aria-roledescription="point" transform="translate(0,134.35714285714286)" d="M2.739,0A2.739,2.739,0,1,1,-2.739,0A2.739,2.739,0,1,1,2.739,0" fill="#b64c35" stroke-width="2" opacity="1"/><path aria-label="week: 1; focal_value: 1.14285714286" role="graphics-symbol" aria-roledescription="point" transform="translate(69.0909090909091,179.14285714285714)" d="M2.739,0A2.739,2.739,0,1,1,-2.739,0A2.739,2.739,0,1,1,2.739,0" fill="#b64c35" stroke-width="2" opacity="1"/><path aria-label="week: 2; focal_value: 0" role="graphics-symbol" aria-roledescription="point" transform="translate(138.1818181818182,190)" d="M2.739,0A2.739,2.739,0,1,1,-2.739,0A2.739,2.739,0,1,1,2.739,0" fill="#b64c35" stroke-width="2" opacity="1"/><path aria-label="week: 3; focal_value: 8" role="graphics-symbol" aria-roledescription="point" transform="translate(207.27272727272725,114)" d="M2.739,0A2.739,2.739,0,1,1,-2.739,0A2.739,2.739,0,1,1,2.739,0" fill="#b64c35" stroke-width="2" opacity="1"/><path aria-label="week: 4; focal_value: 4.85714285714" role="graphics-symbol" aria-roledescription="point" transform="translate(276.3636363636364,143.85714285714286)" d="M2.739,0A2.739,2.739,0,1,1,-2.739,0A2.739,2.739,0,1,1,2.739,0" fill="#b64c35" stroke-width="2" opacity="1"/><path aria-label="week: 5; focal_value: 0.142857142857" role="graphics-symbol" aria-roledescription="point" transform="translate(345.45454545454544,188.64285714285714)" d="M2.739,0A2.739,2.739,0,1,1,-2.739,0A2.739,2.739,0,1,1,2.739,0" fill="#b64c35" stroke-width="2" opacity="1"/><path aria-label="week: 6; focal_value: 0" role="graphics-symbol" aria-roledescription="point" transform="translate(414.5454545454545,190)" d="M2.739,0A2.739,2.739,0,1,1,-2.739,0A2.739,2.739,0,1,1,2.739,0" fill="#b64c35" stroke-width="2" opacity="1"/><path aria-label="week: 7; focal_value: 0" role="graphics-symbol" aria-roledescription="point" transform="translate(483.6363636363636,190)" d="M2.739,0A2.739,2.739,0,1,1,-2.739,0A2.739,2.739,0,1,1,2.739,0" fill="#b64c35" stroke-width="2" opacity="1"/><path aria-label="week: 8; focal_value: 0" role="graphics-symbol" aria-roledescription="point" transform="translate(552.7272727272727,190)" d="M2.739,0A2.739,2.739,0,1,1,-2.739,0A2.739,2.739,0,1,1,2.739,0" fill="#b64c35" stroke-width="2" opacity="1"/><path aria-label="week: 9; focal_value: 0" role="graphics-symbol" aria-roledescription="point" transform="translate(621.8181818181819,190)" d="M2.739,0A2.739,2.739,0,1,1,-2.739,0A2.739,2.739,0,1,1,2.739,0" fill="#b64c35" stroke-width="2" opacity="1"/><path aria-label="week: 10; focal_value: 0" role="graphics-symbol" aria-roledescription="point" transform="translate(690.9090909090909,190)" d="M2.739,0A2.739,2.739,0,1,1,-2.739,0A2.739,2.739,0,1,1,2.739,0" fill="#b64c35" stroke-width="2" opacity="1"/><path aria-label="week: 11; focal_value: 0" role="graphics-symbol" aria-roledescription="point" transform="translate(760,190)" d="M2.739,0A2.739,2.739,0,1,1,-2.739,0A2.739,2.739,0,1,1,2.739,0" fill="#b64c35" stroke-width="2" opacity="1"/></g><g class="mark-group role-title"><g transform="translate(-36.2353515625,-55)"><path class="background" aria-hidden="true" d="M0,0h0v0h0Z" pointer-events="none"/><g><g class="mark-text role-title-text" role="graphics-symbol" aria-roledescription="title" aria-label="Title text 'Clicks per eligible day'" pointer-events="none"><text text-anchor="start" transform="translate(0,13)" font-family="sans-serif" font-size="17px" font-weight="bold" fill="#142e38" opacity="1">Clicks per eligible day</text></g><g class="mark-text role-title-subtitle" role="graphics-symbol" aria-roledescription="subtitle" aria-label="Subtitle text 'Rust: focal student · teal: same-week peers; band: 95% peer-mean bootstrap interval Individual prediction uncertainty is not estimated.'" pointer-events="none"><text text-anchor="start" transform="translate(0,29)" font-family="sans-serif" font-size="11px" fill="#000" opacity="1"><tspan>Rust: focal student · teal: same-week peers; band: 95% peer-mean bootstrap interval</tspan><tspan x="0" dy="13">Individual prediction uncertainty is not estimated.</tspan></text></g></g><path class="foreground" aria-hidden="true" d="" pointer-events="none" display="none"/></g></g></g><path class="foreground" aria-hidden="true" d="" display="none"/></g></g><g class="mark-group role-scope concat_1_group" role="graphics-object" aria-roledescription="group mark container"><g transform="translate(0,273)"><path class="background" aria-hidden="true" d="M0,0h760v30h-760Z"/><g><g class="mark-rect role-mark concat_1_marks" role="graphics-object" aria-roledescription="rect mark container"><path aria-label="Week: 0; row: Administrative / recorded state; Observation status: recorded_activity; week: 0; eligible_days: 7; observation_status: recorded_activity; logging_completeness: unknown" role="graphics-symbol" aria-roledescription="rect mark" d="M0,0h63.333333333333336v30h-63.333333333333336Z" fill="#286f83"/><path aria-label="Week: 1; row: Administrative / recorded state; Observation status: recorded_activity; week: 1; eligible_days: 7; observation_status: recorded_activity; logging_completeness: unknown" role="graphics-symbol" aria-roledescription="rect mark" d="M63.333333333333336,0h63.333333333333336v30h-63.333333333333336Z" fill="#286f83"/><path aria-label="Week: 2; row: Administrative / recorded state; Observation status: zero_recorded_activity; week: 2; eligible_days: 7; observation_status: zero_recorded_activity; logging_completeness: unknown" role="graphics-symbol" aria-roledescription="rect mark" d="M126.66666666666667,0h63.333333333333336v30h-63.333333333333336Z" fill="#e4bb64"/><path aria-label="Week: 3; row: Administrative / recorded state; Observation status: recorded_activity; week: 3; eligible_days: 7; observation_status: recorded_activity; logging_completeness: unknown" role="graphics-symbol" aria-roledescription="rect mark" d="M190,0h63.333333333333336v30h-63.333333333333336Z" fill="#286f83"/><path aria-label="Week: 4; row: Administrative / recorded state; Observation status: recorded_activity; week: 4; eligible_days: 7; observation_status: recorded_activity; logging_completeness: unknown" role="graphics-symbol" aria-roledescription="rect mark" d="M253.33333333333334,0h63.333333333333336v30h-63.333333333333336Z" fill="#286f83"/><path aria-label="Week: 5; row: Administrative / recorded state; Observation status: recorded_activity; week: 5; eligible_days: 7; observation_status: recorded_activity; logging_completeness: unknown" role="graphics-symbol" aria-roledescription="rect mark" d="M316.6666666666667,0h63.333333333333336v30h-63.333333333333336Z" fill="#286f83"/><path aria-label="Week: 6; row: Administrative / recorded state; Observation status: zero_recorded_activity; week: 6; eligible_days: 7; observation_status: zero_recorded_activity; logging_completeness: unknown" role="graphics-symbol" aria-roledescription="rect mark" d="M380,0h63.333333333333336v30h-63.333333333333336Z" fill="#e4bb64"/><path aria-label="Week: 7; row: Administrative / recorded state; Observation status: zero_recorded_activity; week: 7; eligible_days: 7; observation_status: zero_recorded_activity; logging_completeness: unknown" role="graphics-symbol" aria-roledescription="rect mark" d="M443.33333333333337,0h63.333333333333336v30h-63.333333333333336Z" fill="#e4bb64"/><path aria-label="Week: 8; row: Administrative / recorded state; Observation status: zero_recorded_activity; week: 8; eligible_days: 7; observation_status: zero_recorded_activity; logging_completeness: unknown" role="graphics-symbol" aria-roledescription="rect mark" d="M506.6666666666667,0h63.333333333333336v30h-63.333333333333336Z" fill="#e4bb64"/><path aria-label="Week: 9; row: Administrative / recorded state; Observation status: zero_recorded_activity; week: 9; eligible_days: 7; observation_status: zero_recorded_activity; logging_completeness: unknown" role="graphics-symbol" aria-roledescription="rect mark" d="M570,0h63.333333333333336v30h-63.333333333333336Z" fill="#e4bb64"/><path aria-label="Week: 10; row: Administrative / recorded state; Observation status: zero_recorded_activity; week: 10; eligible_days: 7; observation_status: zero_recorded_activity; logging_completeness: unknown" role="graphics-symbol" aria-roledescription="rect mark" d="M633.3333333333334,0h63.333333333333336v30h-63.333333333333336Z" fill="#e4bb64"/><path aria-label="Week: 11; row: Administrative / recorded state; Observation status: zero_recorded_activity; week: 11; eligible_days: 7; observation_status: zero_recorded_activity; logging_completeness: unknown" role="graphics-symbol" aria-roledescription="rect mark" d="M696.6666666666667,0h63.333333333333336v30h-63.333333333333336Z" fill="#e4bb64"/></g><g class="mark-group role-legend" role="graphics-symbol" aria-roledescription="legend" aria-label="Symbol legend titled 'Observation status' for fill color with 4 values: recorded_activity, zero_recorded_activity, ineligible, unknown"><g transform="translate(0,83)"><path class="background" aria-hidden="true" d="M0,0h351v27h-351Z" pointer-events="none"/><g><g class="mark-group role-legend-entry"><g transform="translate(0,16)"><path class="background" aria-hidden="true" d="M0,0h0v0h0Z" pointer-events="none"/><g><g class="mark-group role-scope" role="graphics-object" aria-roledescription="group mark container"><g transform="translate(0,0)"><path class="background" aria-hidden="true" d="M0,0h91.5908203125v11h-91.5908203125Z" pointer-events="none" opacity="1"/><g><g class="mark-symbol role-legend-symbol" pointer-events="none"><path transform="translate(6,6)" d="M-5,-5h10v10h-10Z" fill="#286f83" stroke-width="1.5" opacity="1"/></g><g class="mark-text role-legend-label" pointer-events="none"><text text-anchor="start" transform="translate(16,9)" font-family="sans-serif" font-size="10px" fill="#000" opacity="1">recorded_activity</text></g></g><path class="foreground" aria-hidden="true" d="" pointer-events="none" display="none"/></g><g transform="translate(102,0)"><path class="background" aria-hidden="true" d="M0,0h116.60546875v11h-116.60546875Z" pointer-events="none" opacity="1"/><g><g class="mark-symbol role-legend-symbol" pointer-events="none"><path transform="translate(6,6)" d="M-5,-5h10v10h-10Z" fill="#e4bb64" stroke-width="1.5" opacity="1"/></g><g class="mark-text role-legend-label" pointer-events="none"><text text-anchor="start" transform="translate(16,9)" font-family="sans-serif" font-size="10px" fill="#000" opacity="1">zero_recorded_activity</text></g></g><path class="foreground" aria-hidden="true" d="" pointer-events="none" display="none"/></g><g transform="translate(229,0)"><path class="background" aria-hidden="true" d="M0,0h54.916015625v11h-54.916015625Z" pointer-events="none" opacity="1"/><g><g class="mark-symbol role-legend-symbol" pointer-events="none"><path transform="translate(6,6)" d="M-5,-5h10v10h-10Z" fill="#aaaeb3" stroke-width="1.5" opacity="1"/></g><g class="mark-text role-legend-label" pointer-events="none"><text text-anchor="start" transform="translate(16,9)" font-family="sans-serif" font-size="10px" fill="#000" opacity="1">ineligible</text></g></g><path class="foreground" aria-hidden="true" d="" pointer-events="none" display="none"/></g><g transform="translate(294,0)"><path class="background" aria-hidden="true" d="M0,0h56.029296875v11h-56.029296875Z" pointer-events="none" opacity="1"/><g><g class="mark-symbol role-legend-symbol" pointer-events="none"><path transform="translate(6,6)" d="M-5,-5h10v10h-10Z" fill="#ac78a5" stroke-width="1.5" opacity="1"/></g><g class="mark-text role-legend-label" pointer-events="none"><text text-anchor="start" transform="translate(16,9)" font-family="sans-serif" font-size="10px" fill="#000" opacity="1">unknown</text></g></g><path class="foreground" aria-hidden="true" d="" pointer-events="none" display="none"/></g></g></g><path class="foreground" aria-hidden="true" d="" pointer-events="none" display="none"/></g></g><g class="mark-text role-legend-title" pointer-events="none"><text text-anchor="start" transform="translate(0,9)" font-family="sans-serif" font-size="11px" font-weight="bold" fill="#000" opacity="1">Observation status</text></g></g><path class="foreground" aria-hidden="true" d="" pointer-events="none" display="none"/></g></g><g class="mark-group role-title"><g transform="translate(-155.564453125,-21)"><path class="background" aria-hidden="true" d="M0,0h0v0h0Z" pointer-events="none"/><g><g class="mark-text role-title-text" role="graphics-symbol" aria-roledescription="title" aria-label="Title text 'Observation status · registration is not study time'" pointer-events="none"><text text-anchor="start" transform="translate(0,13)" font-family="sans-serif" font-size="17px" font-weight="bold" fill="#142e38" opacity="1">Observation status · registration is not study time</text></g></g><path class="foreground" aria-hidden="true" d="" pointer-events="none" display="none"/></g></g><g class="mark-group role-axis" role="graphics-symbol" aria-roledescription="axis" aria-label="X-axis titled 'Week' for a discrete scale with 12 values: 0, 1, 2, 3, 4, ending with 11"><g transform="translate(0.5,30.5)"><path class="background" aria-hidden="true" d="M0,0h0v0h0Z" pointer-events="none"/><g><g class="mark-rule role-axis-tick" pointer-events="none"><line transform="translate(31,0)" x2="0" y2="5" stroke="#888" stroke-width="1" opacity="1"/><line transform="translate(95,0)" x2="0" y2="5" stroke="#888" stroke-width="1" opacity="1"/><line transform="translate(158,0)" x2="0" y2="5" stroke="#888" stroke-width="1" opacity="1"/><line transform="translate(221,0)" x2="0" y2="5" stroke="#888" stroke-width="1" opacity="1"/><line transform="translate(285,0)" x2="0" y2="5" stroke="#888" stroke-width="1" opacity="1"/><line transform="translate(348,0)" x2="0" y2="5" stroke="#888" stroke-width="1" opacity="1"/><line transform="translate(411,0)" x2="0" y2="5" stroke="#888" stroke-width="1" opacity="1"/><line transform="translate(475,0)" x2="0" y2="5" stroke="#888" stroke-width="1" opacity="1"/><line transform="translate(538,0)" x2="0" y2="5" stroke="#888" stroke-width="1" opacity="1"/><line transform="translate(601,0)" x2="0" y2="5" stroke="#888" stroke-width="1" opacity="1"/><line transform="translate(665,0)" x2="0" y2="5" stroke="#888" stroke-width="1" opacity="1"/><line transform="translate(728,0)" x2="0" y2="5" stroke="#888" stroke-width="1" opacity="1"/></g><g class="mark-text role-axis-label" pointer-events="none"><text text-anchor="end" transform="translate(31.166666666666668,7) rotate(270) translate(0,3)" font-family="sans-serif" font-size="11px" fill="#000" opacity="1">0</text><text text-anchor="end" transform="translate(94.5,7) rotate(270) translate(0,3)" font-family="sans-serif" font-size="11px" fill="#000" opacity="1">1</text><text text-anchor="end" transform="translate(157.83333333333334,7) rotate(270) translate(0,3)" font-family="sans-serif" font-size="11px" fill="#000" opacity="1">2</text><text text-anchor="end" transform="translate(221.16666666666666,7) rotate(270) translate(0,3)" font-family="sans-serif" font-size="11px" fill="#000" opacity="1">3</text><text text-anchor="end" transform="translate(284.5,7) rotate(270) translate(0,3)" font-family="sans-serif" font-size="11px" fill="#000" opacity="1">4</text><text text-anchor="end" transform="translate(347.83333333333337,7) rotate(270) translate(0,3)" font-family="sans-serif" font-size="11px" fill="#000" opacity="1">5</text><text text-anchor="end" transform="translate(411.1666666666667,7) rotate(270) translate(0,3)" font-family="sans-serif" font-size="11px" fill="#000" opacity="1">6</text><text text-anchor="end" transform="translate(474.50000000000006,7) rotate(270) translate(0,3)" font-family="sans-serif" font-size="11px" fill="#000" opacity="1">7</text><text text-anchor="end" transform="translate(537.8333333333334,7) rotate(270) translate(0,3)" font-family="sans-serif" font-size="11px" fill="#000" opacity="1">8</text><text text-anchor="end" transform="translate(601.1666666666666,7) rotate(270) translate(0,3)" font-family="sans-serif" font-size="11px" fill="#000" opacity="1">9</text><text text-anchor="end" transform="translate(664.5,7) rotate(270) translate(0,3)" font-family="sans-serif" font-size="11px" fill="#000" opacity="1">10</text><text text-anchor="end" transform="translate(727.8333333333334,7) rotate(270) translate(0,3)" font-family="sans-serif" font-size="11px" fill="#000" opacity="1">11</text></g><g class="mark-rule role-axis-domain" pointer-events="none"><line transform="translate(0,0)" x2="760" y2="0" stroke="#888" stroke-width="1" opacity="1"/></g><g class="mark-text role-axis-title" pointer-events="none"><text text-anchor="middle" transform="translate(380,32.2353515625)" font-family="sans-serif" font-size="12px" font-weight="bold" fill="#000" opacity="1">Week</text></g></g><path class="foreground" aria-hidden="true" d="" pointer-events="none" display="none"/></g></g><g class="mark-group role-axis" role="graphics-symbol" aria-roledescription="axis" aria-label="Y-axis for a discrete scale with 1 value: Administrative / recorded state"><g transform="translate(0.5,0.5)"><path class="background" aria-hidden="true" d="M0,0h0v0h0Z" pointer-events="none"/><g><g class="mark-rule role-axis-tick" pointer-events="none"><line transform="translate(0,15)" x2="-5" y2="0" stroke="#888" stroke-width="1" opacity="1"/></g><g class="mark-text role-axis-label" pointer-events="none"><text text-anchor="end" transform="translate(-7,17.5)" font-family="sans-serif" font-size="11px" fill="#000" opacity="1">Administrative / recorded state</text></g><g class="mark-rule role-axis-domain" pointer-events="none"><line transform="translate(0,0)" x2="0" y2="30" stroke="#888" stroke-width="1" opacity="1"/></g></g><path class="foreground" aria-hidden="true" d="" pointer-events="none" display="none"/></g></g></g><path class="foreground" aria-hidden="true" d="" display="none"/></g></g><g class="mark-group role-scope concat_2_group" role="graphics-object" aria-roledescription="group mark container"><g transform="translate(0,461)"><path class="background" aria-hidden="true" d="M0,0h760v90h-760Z"/><g><g class="mark-group role-axis" aria-hidden="true"><g transform="translate(0.5,90.5)"><path class="background" aria-hidden="true" d="M0,0h0v0h0Z" pointer-events="none"/><g><g class="mark-rule role-axis-grid" pointer-events="none"><line transform="translate(0,0)" x2="0" y2="-90" stroke="#ddd" stroke-width="1" opacity="1"/><line transform="translate(28,0)" x2="0" y2="-90" stroke="#ddd" stroke-width="1" opacity="1"/><line transform="translate(55,0)" x2="0" y2="-90" stroke="#ddd" stroke-width="1" opacity="1"/><line transform="translate(83,0)" x2="0" y2="-90" stroke="#ddd" stroke-width="1" opacity="1"/><line transform="translate(111,0)" x2="0" y2="-90" stroke="#ddd" stroke-width="1" opacity="1"/><line transform="translate(138,0)" x2="0" y2="-90" stroke="#ddd" stroke-width="1" opacity="1"/><line transform="translate(166,0)" x2="0" y2="-90" stroke="#ddd" stroke-width="1" opacity="1"/><line transform="translate(193,0)" x2="0" y2="-90" stroke="#ddd" stroke-width="1" opacity="1"/><line transform="translate(221,0)" x2="0" y2="-90" stroke="#ddd" stroke-width="1" opacity="1"/><line transform="translate(249,0)" x2="0" y2="-90" stroke="#ddd" stroke-width="1" opacity="1"/><line transform="translate(276,0)" x2="0" y2="-90" stroke="#ddd" stroke-width="1" opacity="1"/><line transform="translate(304,0)" x2="0" y2="-90" stroke="#ddd" stroke-width="1" opacity="1"/><line transform="translate(332,0)" x2="0" y2="-90" stroke="#ddd" stroke-width="1" opacity="1"/><line transform="translate(359,0)" x2="0" y2="-90" stroke="#ddd" stroke-width="1" opacity="1"/><line transform="translate(387,0)" x2="0" y2="-90" stroke="#ddd" stroke-width="1" opacity="1"/><line transform="translate(415,0)" x2="0" y2="-90" stroke="#ddd" stroke-width="1" opacity="1"/><line transform="translate(442,0)" x2="0" y2="-90" stroke="#ddd" stroke-width="1" opacity="1"/><line transform="translate(470,0)" x2="0" y2="-90" stroke="#ddd" stroke-width="1" opacity="1"/><line transform="translate(497,0)" x2="0" y2="-90" stroke="#ddd" stroke-width="1" opacity="1"/><line transform="translate(525,0)" x2="0" y2="-90" stroke="#ddd" stroke-width="1" opacity="1"/><line transform="translate(553,0)" x2="0" y2="-90" stroke="#ddd" stroke-width="1" opacity="1"/><line transform="translate(580,0)" x2="0" y2="-90" stroke="#ddd" stroke-width="1" opacity="1"/><line transform="translate(608,0)" x2="0" y2="-90" stroke="#ddd" stroke-width="1" opacity="1"/><line transform="translate(636,0)" x2="0" y2="-90" stroke="#ddd" stroke-width="1" opacity="1"/><line transform="translate(663,0)" x2="0" y2="-90" stroke="#ddd" stroke-width="1" opacity="1"/><line transform="translate(691,0)" x2="0" y2="-90" stroke="#ddd" stroke-width="1" opacity="1"/><line transform="translate(719,0)" x2="0" y2="-90" stroke="#ddd" stroke-width="1" opacity="1"/><line transform="translate(746,0)" x2="0" y2="-90" stroke="#ddd" stroke-width="1" opacity="1"/></g></g><path class="foreground" aria-hidden="true" d="" pointer-events="none" display="none"/></g></g><g class="mark-group role-axis" role="graphics-symbol" aria-roledescription="axis" aria-label="X-axis titled 'recorded clicks / eligible day' for a linear scale with values from 0 to 6"><g transform="translate(0.5,90.5)"><path class="background" aria-hidden="true" d="M0,0h0v0h0Z" pointer-events="none"/><g><g class="mark-rule role-axis-tick" pointer-events="none"><line transform="translate(0,0)" x2="0" y2="5" stroke="#888" stroke-width="1" opacity="1"/><line transform="translate(28,0)" x2="0" y2="5" stroke="#888" stroke-width="1" opacity="1"/><line transform="translate(55,0)" x2="0" y2="5" stroke="#888" stroke-width="1" opacity="1"/><line transform="translate(83,0)" x2="0" y2="5" stroke="#888" stroke-width="1" opacity="1"/><line transform="translate(111,0)" x2="0" y2="5" stroke="#888" stroke-width="1" opacity="1"/><line transform="translate(138,0)" x2="0" y2="5" stroke="#888" stroke-width="1" opacity="1"/><line transform="translate(166,0)" x2="0" y2="5" stroke="#888" stroke-width="1" opacity="1"/><line transform="translate(193,0)" x2="0" y2="5" stroke="#888" stroke-width="1" opacity="1"/><line transform="translate(221,0)" x2="0" y2="5" stroke="#888" stroke-width="1" opacity="1"/><line transform="translate(249,0)" x2="0" y2="5" stroke="#888" stroke-width="1" opacity="1"/><line transform="translate(276,0)" x2="0" y2="5" stroke="#888" stroke-width="1" opacity="1"/><line transform="translate(304,0)" x2="0" y2="5" stroke="#888" stroke-width="1" opacity="1"/><line transform="translate(332,0)" x2="0" y2="5" stroke="#888" stroke-width="1" opacity="1"/><line transform="translate(359,0)" x2="0" y2="5" stroke="#888" stroke-width="1" opacity="1"/><line transform="translate(387,0)" x2="0" y2="5" stroke="#888" stroke-width="1" opacity="1"/><line transform="translate(415,0)" x2="0" y2="5" stroke="#888" stroke-width="1" opacity="1"/><line transform="translate(442,0)" x2="0" y2="5" stroke="#888" stroke-width="1" opacity="1"/><line transform="translate(470,0)" x2="0" y2="5" stroke="#888" stroke-width="1" opacity="1"/><line transform="translate(497,0)" x2="0" y2="5" stroke="#888" stroke-width="1" opacity="1"/><line transform="translate(525,0)" x2="0" y2="5" stroke="#888" stroke-width="1" opacity="1"/><line transform="translate(553,0)" x2="0" y2="5" stroke="#888" stroke-width="1" opacity="1"/><line transform="translate(580,0)" x2="0" y2="5" stroke="#888" stroke-width="1" opacity="1"/><line transform="translate(608,0)" x2="0" y2="5" stroke="#888" stroke-width="1" opacity="1"/><line transform="translate(636,0)" x2="0" y2="5" stroke="#888" stroke-width="1" opacity="1"/><line transform="translate(663,0)" x2="0" y2="5" stroke="#888" stroke-width="1" opacity="1"/><line transform="translate(691,0)" x2="0" y2="5" stroke="#888" stroke-width="1" opacity="1"/><line transform="translate(719,0)" x2="0" y2="5" stroke="#888" stroke-width="1" opacity="1"/><line transform="translate(746,0)" x2="0" y2="5" stroke="#888" stroke-width="1" opacity="1"/></g><g class="mark-text role-axis-label" pointer-events="none"><text text-anchor="start" transform="translate(0,16)" font-family="sans-serif" font-size="11px" fill="#000" opacity="1">0.0</text><text text-anchor="middle" transform="translate(27.63636363636364,16)" font-family="sans-serif" font-size="11px" fill="#000" opacity="1">0.2</text><text text-anchor="middle" transform="translate(55.27272727272728,16)" font-family="sans-serif" font-size="11px" fill="#000" opacity="1">0.4</text><text text-anchor="middle" transform="translate(82.9090909090909,16)" font-family="sans-serif" font-size="11px" fill="#000" opacity="1">0.6</text><text text-anchor="middle" transform="translate(110.54545454545456,16)" font-family="sans-serif" font-size="11px" fill="#000" opacity="1">0.8</text><text text-anchor="middle" transform="translate(138.1818181818182,16)" font-family="sans-serif" font-size="11px" fill="#000" opacity="1">1.0</text><text text-anchor="middle" transform="translate(165.8181818181818,16)" font-family="sans-serif" font-size="11px" fill="#000" opacity="1">1.2</text><text text-anchor="middle" transform="translate(193.45454545454544,16)" font-family="sans-serif" font-size="11px" fill="#000" opacity="1">1.4</text><text text-anchor="middle" transform="translate(221.09090909090912,16)" font-family="sans-serif" font-size="11px" fill="#000" opacity="1">1.6</text><text text-anchor="middle" transform="translate(248.72727272727272,16)" font-family="sans-serif" font-size="11px" fill="#000" opacity="1">1.8</text><text text-anchor="middle" transform="translate(276.3636363636364,16)" font-family="sans-serif" font-size="11px" fill="#000" opacity="1">2.0</text><text text-anchor="middle" transform="translate(304,16)" font-family="sans-serif" font-size="11px" fill="#000" opacity="1">2.2</text><text text-anchor="middle" transform="translate(331.6363636363636,16)" font-family="sans-serif" font-size="11px" fill="#000" opacity="1">2.4</text><text text-anchor="middle" transform="translate(359.27272727272725,16)" font-family="sans-serif" font-size="11px" fill="#000" opacity="1">2.6</text><text text-anchor="middle" transform="translate(386.9090909090909,16)" font-family="sans-serif" font-size="11px" fill="#000" opacity="1">2.8</text><text text-anchor="middle" transform="translate(414.5454545454545,16)" font-family="sans-serif" font-size="11px" fill="#000" opacity="1">3.0</text><text text-anchor="middle" transform="translate(442.18181818181824,16)" font-family="sans-serif" font-size="11px" fill="#000" opacity="1">3.2</text><text text-anchor="middle" transform="translate(469.8181818181818,16)" font-family="sans-serif" font-size="11px" fill="#000" opacity="1">3.4</text><text text-anchor="middle" transform="translate(497.45454545454544,16)" font-family="sans-serif" font-size="11px" fill="#000" opacity="1">3.6</text><text text-anchor="middle" transform="translate(525.0909090909091,16)" font-family="sans-serif" font-size="11px" fill="#000" opacity="1">3.8</text><text text-anchor="middle" transform="translate(552.7272727272727,16)" font-family="sans-serif" font-size="11px" fill="#000" opacity="1">4.0</text><text text-anchor="middle" transform="translate(580.3636363636364,16)" font-family="sans-serif" font-size="11px" fill="#000" opacity="1">4.2</text><text text-anchor="middle" transform="translate(608,16)" font-family="sans-serif" font-size="11px" fill="#000" opacity="1">4.4</text><text text-anchor="middle" transform="translate(635.6363636363636,16)" font-family="sans-serif" font-size="11px" fill="#000" opacity="1">4.6</text><text text-anchor="middle" transform="translate(663.2727272727273,16)" font-family="sans-serif" font-size="11px" fill="#000" opacity="1">4.8</text><text text-anchor="middle" transform="translate(690.9090909090909,16)" font-family="sans-serif" font-size="11px" fill="#000" opacity="1">5.0</text><text text-anchor="middle" transform="translate(718.5454545454545,16)" font-family="sans-serif" font-size="11px" fill="#000" opacity="1">5.2</text><text text-anchor="middle" transform="translate(746.1818181818182,16)" font-family="sans-serif" font-size="11px" fill="#000" opacity="1">5.4</text></g><g class="mark-rule role-axis-domain" pointer-events="none"><line transform="translate(0,0)" x2="760" y2="0" stroke="#888" stroke-width="1" opacity="1"/></g><g class="mark-text role-axis-title" pointer-events="none"><text text-anchor="middle" transform="translate(380,31)" font-family="sans-serif" font-size="12px" font-weight="bold" fill="#000" opacity="1">recorded clicks / eligible day</text></g></g><path class="foreground" aria-hidden="true" d="" pointer-events="none" display="none"/></g></g><g class="mark-group role-axis" role="graphics-symbol" aria-roledescription="axis" aria-label="Y-axis for a discrete scale with 2 values: Focal: weeks 8–11, Reference: course"><g transform="translate(0.5,0.5)"><path class="background" aria-hidden="true" d="M0,0h0v0h0Z" pointer-events="none"/><g><g class="mark-rule role-axis-tick" pointer-events="none"><line transform="translate(0,22)" x2="-5" y2="0" stroke="#888" stroke-width="1" opacity="1"/><line transform="translate(0,67)" x2="-5" y2="0" stroke="#888" stroke-width="1" opacity="1"/></g><g class="mark-text role-axis-label" pointer-events="none"><text text-anchor="end" transform="translate(-7,25)" font-family="sans-serif" font-size="11px" fill="#000" opacity="1">Focal: weeks 8–11</text><text text-anchor="end" transform="translate(-7,70)" font-family="sans-serif" font-size="11px" fill="#000" opacity="1">Reference: course</text></g><g class="mark-rule role-axis-domain" pointer-events="none"><line transform="translate(0,0)" x2="0" y2="90" stroke="#888" stroke-width="1" opacity="1"/></g></g><path class="foreground" aria-hidden="true" d="" pointer-events="none" display="none"/></g></g><g class="mark-rect role-mark concat_2_layer_0_marks" role="graphics-object" aria-roledescription="rect mark container"><path aria-label="recorded clicks / eligible day: 0; series: Focal: weeks 8–11" role="graphics-symbol" aria-roledescription="bar" d="M0,11.5h0v22h0Z" fill="#286f83"/><path aria-label="recorded clicks / eligible day: 4.14488348531; series: Reference: course" role="graphics-symbol" aria-roledescription="bar" d="M0,56.5h572.7475361517915v22h-572.7475361517915Z" fill="#286f83"/></g><g class="mark-rule role-mark concat_2_layer_1_marks" role="graphics-object" aria-roledescription="rule mark container"><line aria-label="lo: 3.49564336373; series: Reference: course; hi: 4.80631838906" role="graphics-symbol" aria-roledescription="rule mark" transform="translate(483.0343557152068,67.5)" x2="181.11145804550057" y2="0" stroke="#142e38"/></g><g class="mark-group role-title"><g transform="translate(-97.900390625,-49)"><path class="background" aria-hidden="true" d="M0,0h0v0h0Z" pointer-events="none"/><g><g class="mark-text role-title-text" role="graphics-symbol" aria-roledescription="title" aria-label="Title text 'course · 235 peers / 930 person-weeks'" pointer-events="none"><text text-anchor="start" transform="translate(0,13)" font-family="sans-serif" font-size="17px" font-weight="bold" fill="#142e38" opacity="1">course · 235 peers / 930 person-weeks</text></g><g class="mark-text role-title-subtitle" role="graphics-symbol" aria-roledescription="subtitle" aria-label="Subtitle text 'AAA_2013J: Other development people in this presentation, excluding all task focal people; reference weeks 8–11 Whisker: 95% bootstrap interval for reference mean only'" pointer-events="none"><text text-anchor="start" transform="translate(0,29)" font-family="sans-serif" font-size="11px" fill="#000" opacity="1"><tspan>AAA_2013J: Other development people in this presentation, excluding all task focal people; reference weeks 8–11</tspan><tspan x="0" dy="13">Whisker: 95% bootstrap interval for reference mean only</tspan></text></g></g><path class="foreground" aria-hidden="true" d="" pointer-events="none" display="none"/></g></g></g><path class="foreground" aria-hidden="true" d="" display="none"/></g></g></g><path class="foreground" aria-hidden="true" d="" display="none"/></g></g></g></svg>